<svg width="12" height="12" viewBox="0 0 12 12" fill="none" xmlns="http://www.w3.org/2000/svg">
  <path fill-rule="evenodd" clip-rule="evenodd"
    d="M6 8.25C6.59674 8.25 7.16903 8.01295 7.59099 7.59099C8.01295 7.16903 8.25 6.59674 8.25 6C8.25 5.40326 8.01295 4.83097 7.59099 4.40901C7.16903 3.98705 6.59674 3.75 6 3.75C5.40326 3.75 4.83097 3.98705 4.40901 4.40901C3.98705 4.83097 3.75 5.40326 3.75 6C3.75 6.59674 3.98705 7.16903 4.40901 7.59099C4.83097 8.01295 5.40326 8.25 6 8.25ZM6 9C6.79565 9 7.55871 8.68393 8.12132 8.12132C8.68393 7.55871 9 6.79565 9 6C9 5.20435 8.68393 4.44129 8.12132 3.87868C7.55871 3.31607 6.79565 3 6 3C5.20435 3 4.44129 3.31607 3.87868 3.87868C3.31607 4.44129 3 5.20435 3 6C3 6.79565 3.31607 7.55871 3.87868 8.12132C4.44129 8.68393 5.20435 9 6 9Z"
    fill="black" fill-opacity="0.6" />
</svg>